<?xml version="1.0" encoding="UTF-8" standalone="no"?>
<!-- Created with Inkscape (http://www.inkscape.org/) -->
<svg xmlns:inkscape="http://www.inkscape.org/namespaces/inkscape"
  xmlns:rdf="http://www.w3.org/1999/02/22-rdf-syntax-ns#"
  xmlns="http://www.w3.org/2000/svg"
  xmlns:cc="http://creativecommons.org/ns#"
  xmlns:dc="http://purl.org/dc/elements/1.1/"
  xmlns:sodipodi="http://sodipodi.sourceforge.net/DTD/sodipodi-0.dtd" id="svg2" inkscape:version="0.48.3.1 r9886" viewBox="0 0 674.91354 765.60208" version="1.1" sodipodi:docname="_svgclean2.svg">
  <sodipodi:namedview id="base" bordercolor="#666666" inkscape:pageshadow="2" inkscape:window-y="0" pagecolor="#ffffff" inkscape:zoom="0.49547396" inkscape:window-width="370" inkscape:window-maximized="0" inkscape:window-x="372" showgrid="false" borderopacity="1.0" inkscape:current-layer="layer1" inkscape:cx="340.52939" inkscape:cy="300.052" inkscape:window-height="484" inkscape:pageopacity="0.0" inkscape:document-units="px"/>
  <g id="layer1" inkscape:label="Layer 1" inkscape:groupmode="layer" transform="translate(-34.471 -124.24)">
    <g id="g4449" transform="matrix(.85857 0 0 .85857 -426.02 -106.17)">
      <g id="g3493" inkscape:export-ydpi="90" inkscape:export-xdpi="90" transform="matrix(.95417 0 0 .95417 4.8346 82.131)">
        <g id="g3332" transform="matrix(.29553 0 0 .29553 681.49 107.02)">
          <path id="path3334" d="m761.84 691.55-257.38 240.46-343.99-75.703 149.15 319.09-178.3 303.77 94.521-11.695a490.41 342.67 0 0 0 -4.2383 42.475 490.41 342.67 0 0 0 490.41 342.67 490.41 342.67 0 0 0 490.41 -342.67 490.41 342.67 0 0 0 -176.44 -263.13l78.387-34.228-308.22-170.47-34.305-350.55z" style="fill:#000000" inkscape:connector-curvature="0"/>
          <ellipse id="ellipse3336" sodipodi:rx="57.452999" sodipodi:cy="1393" style="fill:#ffffff" d="m 1050.573,1393 c 0,43.0627 -25.7226,77.972 -57.453,77.972 -31.73042,0 -57.453,-34.9093 -57.453,-77.972 0,-43.0627 25.72258,-77.972 57.453,-77.972 31.7304,0 57.453,34.9093 57.453,77.972 z" sodipodi:ry="77.972" rx="57.453" ry="77.972" cy="1393" cx="993.12" sodipodi:cx="993.12"/>
          <path id="path3338" d="m1091.6 1602.3c-68.397 12.29-136.79 26.993-205.19-77.972" sodipodi:nodetypes="cc" style="stroke:#000000;stroke-width:1px;fill:#ffffff" inkscape:connector-curvature="0"/>
          <path id="path3340" d="m250.33 1454.5c-14.259 31.416-130.37 106.72 8.2076 160.05" sodipodi:nodetypes="cc" style="stroke:#000000;stroke-width:1px;fill:#000000" inkscape:connector-curvature="0"/>
          <ellipse id="ellipse3342" sodipodi:rx="24.622999" sodipodi:cy="1364.3" style="opacity:0.714;fill:#000000" d="m 984.813,1364.3 c 0,15.8655 -11.02409,28.727 -24.623,28.727 -13.5989,0 -24.623,-12.8615 -24.623,-28.727 0,-15.8654 11.0241,-28.727 24.623,-28.727 13.59891,0 24.623,12.8616 24.623,28.727 z" sodipodi:ry="28.726999" rx="24.623" ry="28.727" cy="1364.3" cx="960.19" sodipodi:cx="960.19"/>
          <path id="path3344" d="m1145 1417.6 69.765-41.038-32.83 110.8" style="stroke:#000000;stroke-width:1px;fill:#000000" inkscape:connector-curvature="0"/>
          <rect id="rect3346" style="fill:#000000" height="135.43" width="98.492" y="1799.3" x="570.43"/>
          <path id="path3348" d="m504.77 1860.8-16.42 147.8 324.21 119-94.39-209.3-135.43-20.6z" style="stroke:#000000;stroke-width:1px;fill:#000000" inkscape:connector-curvature="0"/>
          <path id="path3350" d="m722.27 1942.9 110.8 106.7-143.63-45.142" sodipodi:nodetypes="ccc" style="stroke:#000000;stroke-width:1px;fill:#000000" inkscape:connector-curvature="0"/>
        </g>
        <path id="path3352" style="stroke:#000000;stroke-width:.29553px;fill:#000000" inkscape:connector-curvature="0" d="m834.3 698.17-35.171 93.384 116.43 4.8511-20.617-83.682z"/>
        <path id="path3354" style="stroke:#000000;stroke-width:.29553px;fill:#000000" inkscape:connector-curvature="0" d="m857.34 775.79 38.809 31.532-23.043 18.192 44.873-7.2767-52.15 21.83 6.0639-23.043 12.128-9.7023-26.681-20.617v-6.0639h3.6384l3.6384 1.2128"/>
        <path id="path3356" d="m837.89 759.77 16.081 47.348-29.19 3.1417 41.865 17.716-55.77-9.2653 17.395-16.283 15.431-1.7616-11.62-31.653 3.2266-5.1342 3.0805 1.936 2.4352 2.9628" style="stroke:#000000;stroke-width:.29553px;fill:#000000" inkscape:connector-curvature="0"/>
        <path id="path3358" inkscape:connector-curvature="0" sodipodi:nodetypes="cccccccc" style="stroke:#000000;stroke-width:.29553px;fill:#000000" d="m848.85 720-50.937-12.128 24.256 54.575-7.2767-40.022 31.532 13.341 2.4256-10.915 4.8511-3.6383z"/>
        <path id="path3360" style="stroke:#000000;stroke-width:.22955px;fill:#000000" inkscape:connector-curvature="0" d="m880.35 740.82 37.63 20.471 36.416-20.471-4.8555-8.7731-27.919 16.815-33.988-14.622-2.4277 8.042v0.7311"/>
        <g id="g3362" transform="matrix(.57348 .097345 -.2182 .52306 857.05 -546.1)">
          <path id="path3364" d="m1007.5 2130.9c13.679 14.516 38.254 0 38.254 0l2.7838 132.57c-12.752 6.5182-26.015 9.381-41.038 0z" sodipodi:nodetypes="ccccc" style="stroke:#000000;stroke-width:6;stroke-linecap:round;fill:#999999" inkscape:connector-curvature="0"/>
          <circle id="circle3366" sodipodi:rx="69.764999" sodipodi:ry="69.764999" style="opacity:0.657;stroke:#000000;stroke-width:6;fill:#e6e6e6" d="m 1099.865,2066 c 0,38.5301 -31.2349,69.765 -69.765,69.765 -38.53017,0 -69.76502,-31.2349 -69.76502,-69.765 0,-38.5301 31.23485,-69.765 69.76502,-69.765 38.5301,0 69.765,31.2349 69.765,69.765 z" cx="1030.1" sodipodi:cy="2066" cy="2066" r="69.765" sodipodi:cx="1030.1"/>
          <path id="path3368" d="m1005.7 2010.4c8.7983-3.1255 4.4675-0.8014 7.3321-3.6661 0.5248-0.5248 3.974 0 4.8881 0 5.6477 0 18.282-2.4682 23.218 0 5.5956 2.7978 13.054 2.0563 17.108 6.1101 1.2583 1.2583 8.2091 7.6771 7.9431 7.9432-0.1723 0.1722-13.813-6.4806-15.886-8.5542-0.6168-0.6168-4.5622 0-5.4991 0-5.7911 0-33.202 2.0754-36.661 0-4.4512-2.6707-0.3549-1.3107-4.8881-2.444" style="fill:#ffffff" inkscape:connector-curvature="0"/>
          <path id="path3370" d="m1080.9 2036.1c-3.7581 0.4368-6.5682 4.2465-9.7762 4.8881-16.14 3.2279-25.985 8.1225-44.604 13.442-6.5384 1.8681-13.442 5.7823-13.442 5.4991 0-3.554 16.955-1.6798 15.275 0-1.0569 1.057-4.8072 2.0097-6.1101 2.444-1.9189 0.6397-4.7184 3.5813-6.1101 4.2771-9.35 4.675-19.298 5.4238-25.051 14.053-0.62098 0.9315-4.8881 2.5184-4.8881 3.6661 0 1.0183 2.5531 1.7239 1.833 2.444-2.7359 2.7359-12.831 8.397-12.831 9.1652 0 0.1526 5.8967-0.2135 6.1101 0 0.83975 0.8397 1.833 4.2426 1.833 3.055 0-0.746 3.5316-6.2445 4.2771-5.4991 1.2672 1.2673-3.8948 3.5126-4.2771 4.2771-0.98522 1.9704-3.6661 7.7021-3.6661 5.4991 0-6.1116 11.928-10.095 14.664-12.831 2.1284-2.1285-3.2454 4.4674-2.444 3.666 3.8172-3.8172 12.496-6.09 17.108-9.1651 1.1374-0.7583 6.2911-6.5401 7.3321-5.4991 0.6219 0.6218-1.4405 1.4406-1.833 1.833-0.611 0.611-1.222 2.4441-1.833 1.833-1.0089-1.0089 2.4566-3.6786 3.055-4.277 4.1329-4.1329 4.6663-3.4443 7.9432-6.7211 1.8045-1.8045 8.5256-5.4706 6.7211-3.6661-0.4074 0.4074-1.2221 1.7981-1.2221 1.222 0-1.5297 1.6549-3.4369 3.0551-4.277 3.6427-2.1857 7.3519-1.2352 10.998-3.6661 0.5359-0.3573 2.4771-0.611 1.833-0.611-5.8439 0-12.676 1.9333-2.444-4.8881 1.9623-1.3082 22.577-2.444 25.662-2.444 3.9508 0 3.9883-2.4441 7.9431-2.4441h2.444c-3.191 0-1.5307-3.0485-0.611-4.888 1.3086-2.6172 3.6661-3.8948 3.6661-7.9432" style="fill:#ffffff" inkscape:connector-curvature="0"/>
        </g>
        <ellipse id="ellipse3372" sodipodi:rx="5.9645" sodipodi:cy="736.40002" style="fill:#000000" d="m 957.91451,736.40002 c 0,4.31644 -2.6704,7.8156 -5.9645,7.8156 -3.2941,0 -5.9645,-3.49916 -5.9645,-7.8156 0,-4.31643 2.6704,-7.8156 5.9645,-7.8156 3.2941,0 5.9645,3.49917 5.9645,7.8156 z" sodipodi:ry="7.8155999" rx="5.9645" ry="7.8156" cy="736.4" cx="951.95" sodipodi:cx="951.95001"/>
        <g id="g3374" style="fill:#999999" transform="matrix(.31824 0 -.13658 .03449 1041.4 756.04)">
          <g id="g3376" style="fill:#999999">
            <path id="path3378" d="m761.84 691.55-257.38 240.46-343.99-75.703 149.15 319.09-178.3 303.77 94.521-11.695a490.41 342.67 0 0 0 -4.2383 42.475 490.41 342.67 0 0 0 490.41 342.67 490.41 342.67 0 0 0 490.41 -342.67 490.41 342.67 0 0 0 -176.44 -263.13l78.387-34.228-308.22-170.47-34.305-350.55z" style="fill:#999999" inkscape:connector-curvature="0"/>
            <ellipse id="ellipse3380" sodipodi:rx="57.452999" sodipodi:cy="1393" style="fill:#999999" d="m 1050.573,1393 c 0,43.0627 -25.7226,77.972 -57.453,77.972 -31.73042,0 -57.453,-34.9093 -57.453,-77.972 0,-43.0627 25.72258,-77.972 57.453,-77.972 31.7304,0 57.453,34.9093 57.453,77.972 z" sodipodi:ry="77.972" rx="57.453" ry="77.972" cy="1393" cx="993.12" sodipodi:cx="993.12"/>
            <path id="path3382" d="m1091.6 1602.3c-68.397 12.29-136.79 26.993-205.19-77.972" sodipodi:nodetypes="cc" style="fill:#999999" inkscape:connector-curvature="0"/>
            <path id="path3384" d="m250.33 1454.5c-14.259 31.416-130.37 106.72 8.2076 160.05" sodipodi:nodetypes="cc" style="fill:#999999" inkscape:connector-curvature="0"/>
            <ellipse id="ellipse3386" sodipodi:rx="24.622999" sodipodi:cy="1364.3" style="opacity:0.714;fill:#999999" d="m 984.813,1364.3 c 0,15.8655 -11.02409,28.727 -24.623,28.727 -13.5989,0 -24.623,-12.8615 -24.623,-28.727 0,-15.8654 11.0241,-28.727 24.623,-28.727 13.59891,0 24.623,12.8616 24.623,28.727 z" sodipodi:ry="28.726999" rx="24.623" ry="28.727" cy="1364.3" cx="960.19" sodipodi:cx="960.19"/>
            <path id="path3388" d="m1145 1417.6 69.765-41.038-32.83 110.8" style="fill:#999999" inkscape:connector-curvature="0"/>
            <rect id="rect3390" style="fill:#999999" height="135.43" width="98.492" y="1799.3" x="570.43"/>
            <path id="path3392" d="m504.77 1860.8-16.42 147.8 324.21 119-94.39-209.3-135.43-20.6z" style="fill:#999999" inkscape:connector-curvature="0"/>
            <path id="path3394" d="m722.27 1942.9 110.8 106.7-143.63-45.142" sodipodi:nodetypes="ccc" style="fill:#999999" inkscape:connector-curvature="0"/>
          </g>
          <path id="path3396" style="fill:#999999" inkscape:connector-curvature="0" d="m517.08 2000.3-119.01 315.99 393.97 16.415-69.765-283.16z"/>
          <path id="path3398" style="fill:#999999" inkscape:connector-curvature="0" d="m595.05 2263 131.32 106.7-77.972 61.557 151.84-24.623-176.46 73.869 20.519-77.972 41.038-32.83-90.284-69.765v-20.519h12.311l12.311 4.1038"/>
          <path id="path3400" d="m529.22 2208.8 54.414 160.22-98.772 10.631 141.66 59.946-188.71-31.352 58.862-55.1 52.215-5.9609-39.321-107.11 10.918-17.373 10.424 6.5509 8.2403 10.025" style="fill:#999999" inkscape:connector-curvature="0"/>
          <path id="path3402" inkscape:connector-curvature="0" sodipodi:nodetypes="cccccccc" style="fill:#999999" d="m566.33 2074.2-172.36-41.038 82.076 184.67-24.623-135.43 106.7 45.142 8.2076-36.934 16.415-12.311z"/>
          <path id="path3404" style="fill:#999999" inkscape:connector-curvature="0" d="m672.91 2144.7 127.33 69.268 123.22-69.268-16.43-29.686-94.472 56.899-115.01-49.477-8.215 27.213v2.4739"/>
          <g id="g3406" style="fill:#999999" transform="matrix(.8349 -.19291 0 .8349 46.401 459.03)">
            <path id="path3408" d="m1007.5 2130.9c13.679 14.516 38.254 0 38.254 0l2.7838 132.57c-12.752 6.5182-26.015 9.381-41.038 0z" sodipodi:nodetypes="ccccc" style="fill:#999999" inkscape:connector-curvature="0"/>
            <circle id="circle3410" sodipodi:rx="69.764999" sodipodi:ry="69.764999" style="opacity:0.657;fill:#999999" d="m 1099.865,2066 c 0,38.5301 -31.2349,69.765 -69.765,69.765 -38.53017,0 -69.76502,-31.2349 -69.76502,-69.765 0,-38.5301 31.23485,-69.765 69.76502,-69.765 38.5301,0 69.765,31.2349 69.765,69.765 z" cx="1030.1" sodipodi:cy="2066" cy="2066" r="69.765" sodipodi:cx="1030.1"/>
            <path id="path3412" d="m1005.7 2010.4c8.7983-3.1255 4.4675-0.8014 7.3321-3.6661 0.5248-0.5248 3.974 0 4.8881 0 5.6477 0 18.282-2.4682 23.218 0 5.5956 2.7978 13.054 2.0563 17.108 6.1101 1.2583 1.2583 8.2091 7.6771 7.9431 7.9432-0.1723 0.1722-13.813-6.4806-15.886-8.5542-0.6168-0.6168-4.5622 0-5.4991 0-5.7911 0-33.202 2.0754-36.661 0-4.4512-2.6707-0.3549-1.3107-4.8881-2.444" style="fill:#999999" inkscape:connector-curvature="0"/>
            <path id="path3414" d="m1080.9 2036.1c-3.7581 0.4368-6.5682 4.2465-9.7762 4.8881-16.14 3.2279-25.985 8.1225-44.604 13.442-6.5384 1.8681-13.442 5.7823-13.442 5.4991 0-3.554 16.955-1.6798 15.275 0-1.0569 1.057-4.8072 2.0097-6.1101 2.444-1.9189 0.6397-4.7184 3.5813-6.1101 4.2771-9.35 4.675-19.298 5.4238-25.051 14.053-0.62098 0.9315-4.8881 2.5184-4.8881 3.6661 0 1.0183 2.5531 1.7239 1.833 2.444-2.7359 2.7359-12.831 8.397-12.831 9.1652 0 0.1526 5.8967-0.2135 6.1101 0 0.83975 0.8397 1.833 4.2426 1.833 3.055 0-0.746 3.5316-6.2445 4.2771-5.4991 1.2672 1.2673-3.8948 3.5126-4.2771 4.2771-0.98522 1.9704-3.6661 7.7021-3.6661 5.4991 0-6.1116 11.928-10.095 14.664-12.831 2.1284-2.1285-3.2454 4.4674-2.444 3.666 3.8172-3.8172 12.496-6.09 17.108-9.1651 1.1374-0.7583 6.2911-6.5401 7.3321-5.4991 0.6219 0.6218-1.4405 1.4406-1.833 1.833-0.611 0.611-1.222 2.4441-1.833 1.833-1.0089-1.0089 2.4566-3.6786 3.055-4.277 4.1329-4.1329 4.6663-3.4443 7.9432-6.7211 1.8045-1.8045 8.5256-5.4706 6.7211-3.6661-0.4074 0.4074-1.2221 1.7981-1.2221 1.222 0-1.5297 1.6549-3.4369 3.0551-4.277 3.6427-2.1857 7.3519-1.2352 10.998-3.6661 0.5359-0.3573 2.4771-0.611 1.833-0.611-5.8439 0-12.676 1.9333-2.444-4.8881 1.9623-1.3082 22.577-2.444 25.662-2.444 3.9508 0 3.9883-2.4441 7.9431-2.4441h2.444c-3.191 0-1.5307-3.0485-0.611-4.888 1.3086-2.6172 3.6661-3.8948 3.6661-7.9432" style="fill:#999999" inkscape:connector-curvature="0"/>
          </g>
          <ellipse id="ellipse3416" sodipodi:rx="20.183001" sodipodi:cy="2129.7" style="fill:#999999" d="m 935.36299,2129.7 c 0,14.6057 -9.03623,26.446 -20.183,26.446 -11.14676,0 -20.183,-11.8403 -20.183,-26.446 0,-14.6058 9.03624,-26.446 20.183,-26.446 11.14677,0 20.183,11.8402 20.183,26.446 z" sodipodi:ry="26.445999" rx="20.183" ry="26.446" cy="2129.7" cx="915.18" sodipodi:cx="915.17999"/>
        </g>
      </g>
      <g id="g4424">
        <g id="g4213" transform="matrix(4.2591,0,0,4.2591,-4292.1,-1053.1)">
          <path id="path3411" d="m1227.4 311.04a85.061 85.061 0 0 0 -6.7656 0.82226 85.061 85.061 0 0 0 -8.2949 1.8613 85.061 85.061 0 0 0 -8.0684 2.6816 85.061 85.061 0 0 0 -7.7617 3.4727 85.061 85.061 0 0 0 -7.375 4.2305 85.061 85.061 0 0 0 -6.916 4.9453 85.061 85.061 0 0 0 -6.3887 5.6133 85.061 85.061 0 0 0 -5.7949 6.2207 85.061 85.061 0 0 0 -5.1465 6.7676 85.061 85.061 0 0 0 -4.4433 7.25 85.061 85.061 0 0 0 -3.6993 7.6562 85.061 85.061 0 0 0 -2.916 7.9863 85.061 85.061 0 0 0 -2.1035 8.2383 85.061 85.061 0 0 0 -1.2695 8.4082 85.061 85.061 0 0 0 -0.4258 8.4902 85.061 85.061 0 0 0 0.2129 6.0176 85.061 85.061 0 0 0 1.0254 8.4414 85.061 85.061 0 0 0 1.8613 8.2949 85.061 85.061 0 0 0 2.6816 8.0703 85.061 85.061 0 0 0 3.4727 7.7598 85.061 85.061 0 0 0 4.2305 7.375 85.061 85.061 0 0 0 4.9472 6.916 85.061 85.061 0 0 0 5.6114 6.3887 85.061 85.061 0 0 0 6.2207 5.7949 85.061 85.061 0 0 0 6.7695 5.1465 85.061 85.061 0 0 0 7.248 4.4434 85.061 85.061 0 0 0 7.6563 3.6992 85.061 85.061 0 0 0 7.9863 2.916 85.061 85.061 0 0 0 8.2383 2.1035 85.061 85.061 0 0 0 8.4082 1.2695 85.061 85.061 0 0 0 0.1836 0.01 85.061 85.061 0 0 0 77.369 -84.646 85.061 85.061 0 0 0 -76.754 -84.645z" style="opacity:0.97;stroke:#000000;stroke-width:.63866;stroke-linecap:round;fill:none" inkscape:connector-curvature="0"/>
          <path id="path3406" d="m1219.1 310.63a85.061 85.061 0 0 0 -85.062 85.061 85.061 85.061 0 0 0 85.062 85.062 85.061 85.061 0 0 0 7.6914 -0.41602 85.061 85.061 0 0 1 -0.1836 -0.01 85.061 85.061 0 0 1 -8.4082 -1.2695 85.061 85.061 0 0 1 -8.2383 -2.1035 85.061 85.061 0 0 1 -7.9863 -2.916 85.061 85.061 0 0 1 -7.6563 -3.6992 85.061 85.061 0 0 1 -7.248 -4.4434 85.061 85.061 0 0 1 -6.7695 -5.1465 85.061 85.061 0 0 1 -6.2207 -5.7949 85.061 85.061 0 0 1 -5.6114 -6.3887 85.061 85.061 0 0 1 -4.9472 -6.916 85.061 85.061 0 0 1 -4.2305 -7.375 85.061 85.061 0 0 1 -3.4727 -7.7598 85.061 85.061 0 0 1 -2.6816 -8.0703 85.061 85.061 0 0 1 -1.8613 -8.2949 85.061 85.061 0 0 1 -1.0254 -8.4414 85.061 85.061 0 0 1 -0.2129 -6.0176 85.061 85.061 0 0 1 0.4258 -8.4902 85.061 85.061 0 0 1 1.2695 -8.4082 85.061 85.061 0 0 1 2.1035 -8.2383 85.061 85.061 0 0 1 2.916 -7.9863 85.061 85.061 0 0 1 3.6993 -7.6562 85.061 85.061 0 0 1 4.4433 -7.25 85.061 85.061 0 0 1 5.1465 -6.7676 85.061 85.061 0 0 1 5.7949 -6.2207 85.061 85.061 0 0 1 6.3887 -5.6133 85.061 85.061 0 0 1 6.916 -4.9453 85.061 85.061 0 0 1 7.375 -4.2305 85.061 85.061 0 0 1 7.7617 -3.4727 85.061 85.061 0 0 1 8.0684 -2.6816 85.061 85.061 0 0 1 8.2949 -1.8613 85.061 85.061 0 0 1 6.7656 -0.82226 85.061 85.061 0 0 0 -8.3066 -0.41602z" style="opacity:0.97;stroke:#000000;stroke-width:.72091;stroke-linecap:round;fill:#000000" inkscape:connector-curvature="0"/>
        </g>
        <path id="path4227" d="m1150.1 476.37c4.3952-10.449 5.1474-24.609 2.131-40.12-3.0163-15.511-9.7888-32.309-19.188-47.593-12.465-20.253-29.52-37.608-46.35-47.167-16.83-9.5584-33.228-11.202-44.565-4.4672-10.915 6.5076-17.017 20.698-16.697 38.827 48.148 5.0333 98.5 31.352 124.67 100.52z" sodipodi:nodetypes="cscsccc" style="opacity:0.97;fill:#ececec" inkscape:connector-curvature="0"/>
        <path id="path4242" inkscape:connector-curvature="0" sodipodi:nodetypes="cscsccc" style="opacity:0.97;fill:#ececec" d="m945.61 912.99c-3.4927 9.1518-11.478 18.447-22.623 26.336-11.145 7.8891-25.406 14.34-40.403 18.276-19.879 5.2102-40.896 5.8697-57.117 1.7925-16.221-4.0773-27.447-12.841-30.508-23.817-2.9335-10.582 1.7267-23.091 12.751-34.226 33.084 25.603 80.255 39.224 137.9 11.638z"/>
        <path id="path4244" d="m1063.6 957.76c21.997-13.046 47.676-31.003 77.964-55.104l176.93 163.32c17.409 60.39-34.424 94.985-83.36 93.568z" sodipodi:nodetypes="ccccc" style="stroke:#000000;stroke-width:1px;fill:#000000" inkscape:connector-curvature="0"/>
        <path id="path4246" d="m1130.3 924.73c8.6484-4.6001 15.593 12.305 29.178 13.688 13.585 1.3821 77.296 72.245 91.185 79.139 18.405 9.1425 34.675 29.719 44.218 43.455 32.543 22.589-9.8108 63.792-11.3 50.227-0.5244-28.893-91.708-169.4-153.28-186.51z" sodipodi:nodetypes="cscccc" style="opacity:0.782;fill:#ffffff" inkscape:connector-curvature="0"/>
      </g>
    </g>
  </g>
  <metadata id="metadata58">
    <rdf:RDF>
      <cc:Work>
        <dc:format>image/svg+xml</dc:format>
        <dc:type rdf:resource="http://purl.org/dc/dcmitype/StillImage"/>
        <cc:license rdf:resource="http://creativecommons.org/licenses/publicdomain/"/>
        <dc:publisher>
          <cc:Agent rdf:about="http://openclipart.org/">
            <dc:title>Openclipart</dc:title>
          </cc:Agent>
        </dc:publisher>
      </cc:Work>
      <cc:License rdf:about="http://creativecommons.org/licenses/publicdomain/">
        <cc:permits rdf:resource="http://creativecommons.org/ns#Reproduction"/>
        <cc:permits rdf:resource="http://creativecommons.org/ns#Distribution"/>
        <cc:permits rdf:resource="http://creativecommons.org/ns#DerivativeWorks"/>
      </cc:License>
    </rdf:RDF>
  </metadata>
</svg>
